# xmcd
#
# Track frame offsets:
#	150
#	17282
#	31491
#	48719
#	62890
#	79689
#	99223
#	133572
#	153580
#	173584
#	190048
#	203532
#	222180
#	236054
#	251738
#	265167
#	285576
#	298033
#	313678
#
# Disc length: 4473 seconds
#
# Revision: 0
# Processed by: cddbd v1.5.1PL2 Copyright (c) Steve Scherf et al.
# Submitted via: audiograbber 1.83.01
#
DISCID=08117713
DTITLE=deheleboel - haimopname
DYEAR=1900
DGENRE=
TTITLE0=03 - De Heleboel -  Eppo Koekoek
TTITLE1=09 - Deheleboel - Widde Hoeske, Leutje Ulsda
TTITLE2=09 - De Heleboel -  Martin Martini
TTITLE3=11 - Deheleboel - Achternoa
TTITLE4=13 - Deheleboel - Tijd
TTITLE5=08 - De Heleboel -  Miss Scheemda
TTITLE6=13 - De Heleboel -  Zündapp boy
TTITLE7=10 - Deheleboel - As Wie Vlaigen Goan
TTITLE8=02 - De Heleboel -  Winschoterdaip
TTITLE9=10 - De Heleboel -  Rust
TTITLE10=01 - De Heleboel - Op fietse deur Grunnen
TTITLE11=11 - De Heleboel -  Wie goan noar Schiermonnikoog
TTITLE12=07 - De Heleboel -  In Veendam
TTITLE13=03 - Deheleboel - Kangeroe
TTITLE14=05 - De Heleboel -  Winkeln in Winschoten
TTITLE15=12 - Deheleboel - Afscheid
TTITLE16=01 - Deheleboel - Ik Wenste
TTITLE17=04 - Deheleboel - De Polder
TTITLE18=14 - Deheleboel - Mis Die Zo
EXTD=
EXTT0=
EXTT1=
EXTT2=
EXTT3=
EXTT4=
EXTT5=
EXTT6=
EXTT7=
EXTT8=
EXTT9=
EXTT10=
EXTT11=
EXTT12=
EXTT13=
EXTT14=
EXTT15=
EXTT16=
EXTT17=
EXTT18=
PLAYORDER=
